<?xml version="1.0" standalone="no"?>
<!DOCTYPE svg PUBLIC "-//W3C//DTD SVG 20010904//EN"
 "http://www.w3.org/TR/2001/REC-SVG-20010904/DTD/svg10.dtd">
<svg version="1.0" xmlns="http://www.w3.org/2000/svg"
 width="636.000000pt" height="636.000000pt" viewBox="0 0 636.000000 636.000000"
 preserveAspectRatio="xMidYMid meet">
<metadata>
Created by potrace 1.16, written by Peter Selinger 2001-2019
</metadata>
<g transform="translate(0.000000,636.000000) scale(0.100000,-0.100000)"
fill="#000000" stroke="none">
<path d="M3412 5980 c-12 -5 -25 -17 -29 -26 -5 -13 -7 -13 -14 -2 -21 33 -3
-30 91 -315 71 -217 106 -309 122 -324 38 -34 69 -46 123 -47 61 0 102 22 111
61 8 32 -100 545 -122 578 -27 42 -111 78 -188 82 -39 1 -81 -1 -94 -7z"/>
<path d="M2404 5939 c-45 -13 -84 -53 -84 -86 0 -21 -3 -24 -10 -13 -5 8 -11
12 -15 9 -6 -7 411 -606 454 -652 39 -43 74 -57 136 -57 50 0 60 4 87 30 54
55 44 83 -142 410 -89 157 -172 296 -184 309 -47 53 -155 75 -242 50z"/>
<path d="M4386 5662 c-3 -41 -6 -151 -6 -245 0 -200 7 -219 92 -261 80 -40
168 -31 168 17 0 7 11 95 25 197 14 102 22 194 19 205 -10 33 -75 95 -129 122
-27 14 -75 29 -106 32 l-56 7 -7 -74z"/>
<path d="M1398 5626 c-88 -32 -131 -84 -126 -153 3 -35 1 -39 -11 -30 -11 9
-13 9 -10 0 7 -21 733 -595 778 -616 130 -58 242 38 185 158 -17 37 -604 609
-648 632 -40 21 -124 26 -168 9z"/>
<path d="M5190 5095 c-111 -257 -112 -261 -97 -296 16 -39 82 -106 129 -131
60 -33 69 -27 142 89 36 60 66 117 66 128 0 52 -128 214 -182 231 -13 3 -26
12 -30 18 -4 6 -16 -12 -28 -39z"/>
<path d="M3529 4979 c-538 -38 -988 -251 -1375 -650 -261 -270 -446 -603 -539
-974 -41 -163 -55 -273 -55 -445 0 -206 36 -382 111 -548 43 -95 141 -239 288
-422 254 -316 366 -516 431 -769 16 -61 49 -91 100 -91 22 0 93 16 157 35 274
83 577 125 908 125 303 0 525 -26 829 -97 l158 -37 36 19 c20 11 45 35 55 53
19 32 19 46 8 445 -6 227 -13 449 -16 495 l-5 82 181 0 181 0 29 29 c33 33 39
83 15 129 -8 15 -109 117 -225 226 l-211 199 0 273 0 273 -24 28 -24 28 -150
3 c-200 4 -217 -3 -224 -109 l-3 -36 -138 151 c-75 83 -168 184 -207 224 -66
68 -72 72 -114 72 -24 0 -51 -3 -60 -6 -13 -5 -1104 -1114 -1256 -1278 -50
-53 -55 -63 -55 -103 0 -38 5 -49 33 -74 l32 -29 175 0 175 0 0 -306 c0 -199
4 -312 11 -326 36 -67 199 -60 229 11 8 19 10 137 8 397 -3 330 -5 372 -21
401 -27 50 -62 63 -174 63 l-98 1 105 98 c113 106 447 456 713 748 l166 182
154 -162 c85 -89 202 -215 261 -279 121 -131 142 -148 186 -148 l30 0 0 160 0
160 55 0 55 0 0 -269 c0 -313 -14 -274 141 -402 l102 -84 -109 -3 c-119 -3
-135 -10 -160 -69 -12 -27 -12 -107 1 -505 8 -260 13 -474 11 -476 -2 -2 -62
8 -132 22 -270 52 -377 61 -714 61 -242 -1 -345 -5 -445 -18 -146 -20 -389
-68 -480 -95 l-60 -18 -36 92 c-73 185 -196 383 -395 634 -189 238 -276 387
-331 565 -26 85 -27 100 -27 285 0 223 15 314 85 525 100 300 259 548 502 781
279 268 615 443 982 510 125 23 488 26 605 6 228 -41 379 -90 585 -192 193
-96 311 -179 463 -325 291 -279 494 -655 568 -1050 15 -77 19 -145 19 -295 -1
-174 -4 -207 -27 -305 -55 -232 -127 -367 -373 -695 -190 -252 -238 -325 -304
-457 -75 -152 -131 -340 -131 -444 0 -35 -3 -40 -17 -34 -33 12 -328 84 -430
104 -603 120 -1188 105 -1633 -40 -191 -63 -288 -128 -336 -225 -23 -47 -26
-63 -23 -132 4 -68 8 -84 32 -115 45 -59 96 -80 209 -85 85 -4 114 0 245 32
448 108 843 124 1293 50 157 -26 407 -86 514 -123 64 -23 126 -27 157 -11 47
26 63 112 30 167 -17 27 -35 36 -131 68 -242 78 -561 142 -822 166 -76 7 -227
9 -380 7 l-253 -5 -285 -61 c-395 -84 -424 -87 -367 -34 72 68 391 151 696
182 409 40 983 -31 1477 -185 62 -19 127 -35 147 -35 75 0 114 67 104 181 -9
110 20 270 73 402 44 106 102 200 243 393 386 528 468 689 512 1004 94 675
-237 1440 -820 1896 -112 87 -228 157 -380 230 -257 122 -488 182 -790 204
-152 11 -150 11 -306 -1z"/>
<path d="M470 4909 c-106 -44 -169 -184 -117 -262 21 -33 21 -38 0 -30 -12 4
-15 3 -8 -4 6 -5 240 -104 520 -219 l510 -209 78 0 c76 0 80 1 108 33 50 55
38 142 -28 204 -15 14 -226 131 -468 259 -429 227 -442 233 -505 236 -36 1
-76 -2 -90 -8z"/>
<path d="M3420 2175 l0 -125 130 0 130 0 0 125 0 125 -130 0 -130 0 0 -125z"/>
<path d="M3760 2175 l0 -125 130 0 130 0 0 125 0 125 -130 0 -130 0 0 -125z"/>
<path d="M3420 1830 l0 -130 130 0 130 0 0 130 0 130 -130 0 -130 0 0 -130z"/>
<path d="M3760 1830 l0 -130 130 0 130 0 0 130 0 130 -130 0 -130 0 0 -130z"/>
</g>
</svg>
