<svg width="1000" height="1000" viewBox="0 0 1000 1000" fill="none" xmlns="http://www.w3.org/2000/svg">
<g clip-path="url(#clip0_16_17)">
<g filter="url(#filter0_di_16_17)">
<path d="M752.957 326.143L740.856 354.993L720.196 404.429L630.436 618.997L595.499 702.486H595.204L448.887 507.212L371.892 404.429H249.74C248.619 404.416 247.497 404.478 246.383 404.614C219.535 408.062 194.882 421.23 177.086 441.626C159.29 462.022 149.586 488.233 149.808 515.301C150.031 542.368 160.165 568.416 178.294 588.517C196.423 608.617 221.29 621.378 248.191 624.384C248.879 624.42 249.569 624.42 250.257 624.384H343.19V566.536H282.354L224.026 488.139H358.426L370.896 504.667L384.362 522.634L417.086 566.536L433.798 588.672V702.559H254.795C208.184 700.844 163.865 681.907 130.407 649.411C96.948 616.915 76.7265 573.167 73.6519 526.627C70.5773 480.086 84.8681 434.058 113.761 397.443C142.654 360.828 184.097 336.226 230.077 328.394C237.095 327.211 244.18 326.459 251.29 326.143H411.035L469.695 404.429L594.208 570.447V326.143H620.586V375.727H708.649V326.143H752.957Z" fill="#009C5C"/>
<path d="M699.094 297.219H630.104V366.209H699.094V297.219Z" fill="#009C5C"/>
<path d="M886.363 702.781H669.508L700.756 628.036H855.115L886.363 702.781Z" fill="#009C5C"/>
<path d="M925.58 326.143V619.44L835.635 404.429L814.975 354.993L802.912 326.143H925.58Z" fill="#009C5C"/>
<path d="M825.157 556.501H730.674L777.934 443.573L825.157 556.501Z" fill="#009C5C"/>
</g>
</g>
<defs>
<filter id="filter0_di_16_17" x="58.4846" y="289.841" width="881.853" height="435.076" filterUnits="userSpaceOnUse" color-interpolation-filters="sRGB">
<feFlood flood-opacity="0" result="BackgroundImageFix"/>
<feColorMatrix in="SourceAlpha" type="matrix" values="0 0 0 0 0 0 0 0 0 0 0 0 0 0 0 0 0 0 127 0" result="hardAlpha"/>
<feOffset dy="7.37854"/>
<feGaussianBlur stdDeviation="7.37854"/>
<feComposite in2="hardAlpha" operator="out"/>
<feColorMatrix type="matrix" values="0 0 0 0 0.000833333 0 0 0 0 0.0333333 0 0 0 0 0.0199851 0 0 0 0.25 0"/>
<feBlend mode="normal" in2="BackgroundImageFix" result="effect1_dropShadow_16_17"/>
<feBlend mode="normal" in="SourceGraphic" in2="effect1_dropShadow_16_17" result="shape"/>
<feColorMatrix in="SourceAlpha" type="matrix" values="0 0 0 0 0 0 0 0 0 0 0 0 0 0 0 0 0 0 127 0" result="hardAlpha"/>
<feOffset dy="14.7571"/>
<feGaussianBlur stdDeviation="7.37854"/>
<feComposite in2="hardAlpha" operator="arithmetic" k2="-1" k3="1"/>
<feColorMatrix type="matrix" values="0 0 0 0 0 0 0 0 0 0 0 0 0 0 0 0 0 0 0.25 0"/>
<feBlend mode="normal" in2="shape" result="effect2_innerShadow_16_17"/>
</filter>
<clipPath id="clip0_16_17">
<rect width="853.513" height="405.561" fill="white" transform="translate(73.2437 297.219)"/>
</clipPath>
</defs>
</svg>
